PathFileType	4	(X/Y/Z)	D:\TRACE\spot_10-12-23\spot_arm_body_motion_3_8-platform.trc
DataRate	CameraRate	NumFrames	NumMarkers	Units	OrigDataRate	OrigDataStartFrame	OrigNumFrames
100.00	100.00	      60	5	mm	100.00	1	      7000
Frame#	Time	Left_Front			Right_Front			Left_Aft			Right_Aft			Post			
		X1	Y1	Z1	X2	Y2	Z2	X3	Y3	Z3	X4	Y4	Z4	X5	Y5	Z5	

1	0.000	-819.89838	123.34106	-602.57776	752.85114	126.74599	-595.61829	-736.36737	-79.09786	517.28516	680.92950	-89.86863	602.42493	-37.34819	905.76532	-784.40607	
2	0.010	-819.85992	123.34620	-602.57263	752.91882	126.79622	-595.66522	-736.39575	-79.08028	517.28540	681.00159	-89.84418	602.44348	-37.36310	905.78082	-784.40521	
3	0.020	-819.85889	123.34599	-602.57019	752.89044	126.75703	-595.67401	-736.33282	-79.10043	517.29077	680.95050	-89.84422	602.41699	-37.37103	905.73468	-784.34338	
4	0.030	-819.94415	123.34499	-602.55157	752.90942	126.75839	-595.63922	-736.36328	-79.11364	517.30774	680.96674	-89.86800	602.39551	-37.37268	905.70215	-784.37097	
5	0.040	-819.87427	123.31415	-602.59253	752.93274	126.72832	-595.62915	-736.37195	-79.13678	517.31116	680.97070	-89.89462	602.42291	-37.43417	905.71240	-784.34454	
6	0.050	-819.86127	123.30931	-602.61853	752.92133	126.73309	-595.66437	-736.37372	-79.12024	517.30688	680.97864	-89.88831	602.42456	-37.37637	905.71252	-784.37476	
7	0.060	-819.89825	123.33894	-602.56287	752.88013	126.74679	-595.66052	-736.35632	-79.14380	517.34222	680.95453	-89.86763	602.41528	-37.38127	905.73041	-784.37653	
8	0.070	-819.86847	123.34846	-602.59155	752.90082	126.74963	-595.67902	-736.36133	-79.11526	517.31836	680.97821	-89.86008	602.43542	-37.37986	905.76019	-784.40790	
9	0.080	-819.88568	123.31745	-602.57928	752.91772	126.78530	-595.67169	-736.36176	-79.11279	517.31635	680.99609	-89.86184	602.44391	-37.37108	905.75824	-784.42169	
10	0.090	-819.88538	123.29772	-602.53827	752.93286	126.76653	-595.65552	-736.37689	-79.12977	517.32727	680.96863	-89.89573	602.41077	-37.32762	905.70026	-784.35425	
11	0.100	-819.93964	123.31981	-602.53638	752.88019	126.73703	-595.64172	-736.37482	-79.18116	517.29926	680.95288	-89.88808	602.42328	-37.36342	905.73810	-784.43274	
12	0.110	-819.89166	123.31705	-602.57404	752.90045	126.75353	-595.66174	-736.36462	-79.12778	517.28418	680.98450	-89.88889	602.44434	-37.34017	905.72656	-784.42572	
13	0.120	-819.94971	123.34406	-602.49951	752.90991	126.78616	-595.65613	-736.39996	-79.09190	517.27765	680.95734	-89.84296	602.44727	-37.36455	905.73840	-784.38409	
14	0.130	-819.93701	123.31826	-602.49414	752.90417	126.75883	-595.64972	-736.41187	-79.09222	517.31073	680.99261	-89.83589	602.43958	-37.38833	905.74188	-784.38599	
15	0.140	-819.95862	123.32113	-602.49994	752.87598	126.75755	-595.66296	-736.41925	-79.08338	517.34247	680.95233	-89.83495	602.46692	-37.42039	905.75287	-784.32831	
16	0.150	-819.97546	123.33543	-602.53784	752.89197	126.73797	-595.67377	-736.37439	-79.11814	517.29071	680.96765	-89.88287	602.42432	-37.37510	905.69385	-784.31525	
17	0.160	-819.95355	123.31108	-602.53546	752.87335	126.73763	-595.67719	-736.39380	-79.15252	517.31067	680.96985	-89.83801	602.46838	-37.39415	905.69525	-784.29071	
18	0.170	-819.94812	123.36370	-602.53833	752.91309	126.73006	-595.65607	-736.38617	-79.15389	517.31378	680.98956	-89.83170	602.42657	-37.36740	905.72144	-784.37933	
19	0.180	-819.94116	123.34934	-602.53748	752.89160	126.77650	-595.63287	-736.40253	-79.08400	517.28973	681.03369	-89.78583	602.49298	-37.34276	905.78992	-784.40656	
20	0.190	-819.93829	123.34456	-602.54004	752.90247	126.78009	-595.68164	-736.44257	-79.12968	517.34839	681.02203	-89.82813	602.43671	-37.37942	905.75415	-784.43884	
21	0.200	-819.94580	123.32341	-602.51337	752.86841	126.74348	-595.67273	-736.36774	-79.15330	517.29150	680.99994	-89.84573	602.45386	-37.33204	905.75006	-784.44781	
22	0.210	-819.93207	123.30736	-602.52100	752.86133	126.77195	-595.67358	-736.41211	-79.11829	517.30603	681.00110	-89.87078	602.43481	-37.36321	905.71515	-784.42871	
23	0.220	-819.92798	123.31159	-602.52380	752.88849	126.73270	-595.68762	-736.42651	-79.11380	517.28540	680.98218	-89.82193	602.43994	-37.33765	905.74091	-784.35193	
24	0.230	-819.94781	123.33073	-602.52179	752.91162	126.72370	-595.66187	-736.35895	-79.14855	517.31085	681.05469	-89.83952	602.46136	-37.32947	905.74878	-784.40240	
25	0.240	-819.95477	123.31588	-602.54413	752.89355	126.76716	-595.64899	-736.37787	-79.09907	517.29852	681.02588	-89.83777	602.44366	-37.32912	905.74414	-784.38885	
26	0.250	-819.97107	123.34127	-602.50897	752.91016	126.74340	-595.64063	-736.38434	-79.10803	517.33484	680.96527	-89.80553	602.43616	-37.37671	905.72437	-784.37891	
27	0.260	-819.92352	123.29228	-602.55731	752.91309	126.76650	-595.63062	-736.39301	-79.13077	517.27448	681.02698	-89.84771	602.41541	-37.45184	905.70972	-784.36353	
28	0.270	-819.94647	123.31428	-602.52826	752.89899	126.73676	-595.63080	-736.40240	-79.15928	517.31464	680.97083	-89.87702	602.42468	-37.39485	905.69348	-784.38416	
29	0.280	-819.94379	123.31712	-602.51947	752.87280	126.72893	-595.66901	-736.37976	-79.16712	517.26849	680.98419	-89.83586	602.41290	-37.35911	905.74011	-784.38831	
30	0.290	-819.95581	123.36214	-602.54565	752.86829	126.76649	-595.65271	-736.40198	-79.13732	517.25189	680.98944	-89.81649	602.42468	-37.32342	905.76471	-784.33295	
31	0.300	-819.94342	123.33173	-602.50531	752.90753	126.77460	-595.66077	-736.35693	-79.12402	517.31903	680.99103	-89.80116	602.46295	-37.37770	905.78363	-784.42877	
32	0.310	-819.95221	123.30969	-602.53931	752.89709	126.75025	-595.65417	-736.40027	-79.10020	517.32495	681.01422	-89.85195	602.46283	-37.40102	905.70258	-784.39221	
33	0.320	-819.94971	123.30309	-602.52917	752.91675	126.73579	-595.68878	-736.37329	-79.16949	517.31415	681.02814	-89.84357	602.42371	-37.41443	905.73041	-784.41040	
34	0.330	-819.95264	123.31657	-602.55804	752.86646	126.73833	-595.65906	-736.36804	-79.14660	517.28906	681.02191	-89.80966	602.45374	-37.39000	905.70416	-784.37567	
35	0.340	-819.93445	123.32646	-602.53845	752.91992	126.73705	-595.67700	-736.37427	-79.16792	517.29987	681.03583	-89.80080	602.42889	-37.34156	905.73065	-784.39160	
36	0.350	-819.93262	123.33595	-602.53986	752.92181	126.75677	-595.65118	-736.36761	-79.09419	517.28308	681.00037	-89.84792	602.42963	-37.30779	905.74640	-784.32306	
37	0.360	-819.96021	123.33044	-602.51031	752.89038	126.76598	-595.69232	-736.38684	-79.10542	517.31311	681.02063	-89.82790	602.42188	-37.35947	905.72382	-784.36108	
38	0.370	-819.95166	123.31209	-602.52197	752.90607	126.74290	-595.63330	-736.38800	-79.12280	517.33484	680.98834	-89.85163	602.44269	-37.38727	905.74371	-784.39319	
39	0.380	-819.92358	123.31694	-602.51178	752.89288	126.76058	-595.67426	-736.40424	-79.16978	517.33270	681.01941	-89.83106	602.42822	-37.38178	905.71045	-784.37854	
40	0.390	-819.92572	123.32824	-602.51984	752.89648	126.72324	-595.63684	-736.37006	-79.16442	517.31329	680.99841	-89.84175	602.42236	-37.38774	905.74994	-784.40735	
41	0.400	-819.91766	123.34126	-602.51770	752.91394	126.76656	-595.65540	-736.33160	-79.18391	517.30621	681.05389	-89.85659	602.45532	-37.30399	905.75104	-784.41205	
42	0.410	-819.97021	123.36986	-602.52911	752.89368	126.72280	-595.60815	-736.35150	-79.14117	517.31403	681.03009	-89.81559	602.45471	-37.33352	905.75238	-784.40247	
43	0.420	-819.95520	123.34158	-602.51740	752.87549	126.76881	-595.68579	-736.37781	-79.16448	517.30450	681.04242	-89.81532	602.47559	-37.37929	905.70874	-784.35962	
44	0.430	-819.94879	123.33084	-602.50018	752.90924	126.73858	-595.61603	-736.34076	-79.13306	517.30023	680.98132	-89.86211	602.40930	-37.38214	905.72186	-784.38239	
45	0.440	-819.96185	123.31969	-602.53064	752.86908	126.72787	-595.67377	-736.42273	-79.14246	517.27203	680.93854	-89.84980	602.43365	-37.41033	905.68658	-784.39642	
46	0.450	-819.95721	123.30402	-602.50452	752.88867	126.74433	-595.62244	-736.38019	-79.13062	517.25232	680.98181	-89.81314	602.41748	-37.36055	905.70270	-784.40521	
47	0.460	-819.92950	123.33666	-602.52667	752.88324	126.76923	-595.66528	-736.38586	-79.13393	517.29211	681.02374	-89.84565	602.45435	-37.35740	905.75439	-784.42468	
48	0.470	-819.92053	123.30665	-602.49213	752.90216	126.74876	-595.64697	-736.38611	-79.11544	517.29480	681.01111	-89.84247	602.43835	-37.33977	905.74231	-784.44391	
49	0.480	-819.94714	123.37090	-602.52722	752.94122	126.75833	-595.60144	-736.39264	-79.13578	517.29993	680.96991	-89.83299	602.44482	-37.33787	905.73669	-784.42053	
50	0.490	-819.94214	123.34103	-602.54114	752.89978	126.75502	-595.65436	-736.36371	-79.17942	517.35657	680.99652	-89.83887	602.45441	-37.40056	905.73651	-784.35138	
51	0.500	-819.93042	123.31820	-602.53455	752.91150	126.77176	-595.67493	-736.40900	-79.09843	517.29565	680.98254	-89.86051	602.42828	-37.39098	905.76331	-784.37360	
52	0.510	-819.93787	123.35061	-602.50525	752.89117	126.75409	-595.64551	-736.39514	-79.08861	517.30060	680.93402	-89.81834	602.42688	-37.38588	905.76660	-784.38690	
53	0.520	-819.93402	123.35183	-602.54053	752.93024	126.72758	-595.66705	-736.39575	-79.10558	517.30634	680.99078	-89.85139	602.42853	-37.39718	905.73932	-784.39136	
54	0.530	-819.94080	123.31392	-602.49133	752.91943	126.76714	-595.63385	-736.40491	-79.09220	517.33221	681.01337	-89.81782	602.42535	-37.40300	905.73547	-784.36621	
55	0.540	-819.94336	123.34976	-602.52722	752.90198	126.70834	-595.65363	-736.38409	-79.11919	517.33154	680.98975	-89.83697	602.42834	-37.39543	905.69629	-784.39252	
56	0.550	-819.93256	123.31497	-602.53308	752.89148	126.73688	-595.63019	-736.38782	-79.12655	517.31299	680.93896	-89.86045	602.37103	-37.37122	905.72815	-784.31885	
57	0.560	-819.95618	123.35591	-602.52991	752.92267	126.72536	-595.65851	-736.38336	-79.09303	517.34424	680.98059	-89.80627	602.39978	-37.38697	905.69226	-784.36414	
58	0.570	-819.94885	123.32693	-602.52985	752.90381	126.74766	-595.64838	-736.34363	-79.14214	517.29474	681.00140	-89.82819	602.42163	-37.35671	905.76373	-784.42706	
59	0.580	-819.94910	123.35053	-602.53198	752.87219	126.77041	-595.65973	-736.36932	-79.10526	517.32306	681.00360	-89.82828	602.43970	-37.35627	905.78748	-784.44293	
60	0.590	-819.93127	123.33363	-602.47711	752.89569	126.73586	-595.63953	-736.34900	-79.16441	517.33502	680.95587	-89.85175	602.44684	-37.40540	905.74384	-784.44141	
